<svg id="Layer_1" data-name="Layer 1" xmlns="http://www.w3.org/2000/svg" viewBox="0 0 588.61 588.61"><defs><style>.cls-1{fill:#393;}.cls-2{fill:#243e8a;fill-rule:evenodd;}</style></defs><circle class="cls-1" cx="294.3" cy="294.3" r="294.3"/><path class="cls-2" d="M377.73,114c-2.65.55-5.81.84-12.63,1.13A214,214,0,0,0,338,118c-6.86,1.13-21.44,4.1-22.32,4.54a25.92,25.92,0,0,1-3.69,1c-1.59.35-4,1-5.35,1.46s-4.53,1.43-7.08,2.17a133,133,0,0,0-15.18,5.35,34.44,34.44,0,0,1-4.06,1.6c-1.34.43-5.29,2.08-8.79,3.67s-6.95,3.11-7.68,3.37a6,6,0,0,0-1.8.94,30.41,30.41,0,0,1-3.73,2.13c-1.79.91-3.6,1.9-4,2.19a3,3,0,0,1-1.41.54,3,3,0,0,0-1.51.74,17.43,17.43,0,0,1-2.65,1.63c-1,.49-2.44,1.32-3.27,1.86a20.66,20.66,0,0,1-2.61,1.41,10.86,10.86,0,0,0-2.09,1.26,35.14,35.14,0,0,1-3.11,2,7.49,7.49,0,0,0-2.09,1.51c0,.15-.23.36-.51.46-.69.25-10,6.54-15.28,10.3A266.19,266.19,0,0,0,195.1,189c-1.83,1.74-4,3.79-4.86,4.54-1.83,1.62-2.49,1.34,5.94,2.53a61.42,61.42,0,0,1,7.63,1.44c1.52.58,2.85,1.59,2.85,2.17a2,2,0,0,0,.4.88c.34.47.93.58,4.12.73,4,.2,4.24.29,6.85,2.16a5.46,5.46,0,0,0,2.07,1,5.35,5.35,0,0,0,2.06-1c3.94-2.85,4.56-3,10.08-2.13a64,64,0,0,0,10.69.66c6.49,0,6.67,0,8-.67a13.25,13.25,0,0,0,2.42-1.66c.94-.86,1-1.06.87-2-.54-3.42-.55-3.39,0-3.91.86-.78,3.78-1.68,6-1.86,2.6-.21,4.09.23,4.35,1.29.16.64,0,.92-1,1.79a3.61,3.61,0,0,0-1.2,1.53c0,.3.54.77,1.37,1.19a4.88,4.88,0,0,1,2.71,2.64c.65,1.39,1.59,1.29,5.54-.6,2.84-1.36,3.8-1.68,5.37-1.79,3.5-.25,5.39,1.25,5.15,4.07-.33,3.82-3.64,4.94-15.84,5.35-7.38.25-8.3.45-8.7,1.85-.12.44-.32,1.14-.44,1.56-.38,1.35-1.48,1.88-4.45,2.16-3.85.37-3.88.38-5,2.09s-1.45,1.92-5.72,2.89a12.06,12.06,0,0,0-4.48,1.66c-2,1.39-6.91,6.21-7.46,7.36-.88,1.85.17,4.58,2.56,6.69,1.29,1.13,8.9,5.08,11.59,6,1.77.61,3,1.86,3,3a7.89,7.89,0,0,1-.45,2.09c-1,2.7-1.25,4.24-1,5.25a3.32,3.32,0,0,0,2.61,2.41c1.37.22,2.28-.58,3.94-3.46,2-3.45,3.22-4.53,7.4-6.54,3.21-1.54,3.77-1.92,5.49-3.78a22.51,22.51,0,0,0,3.94-6.12,36.44,36.44,0,0,0,2-4.48c0-.69,2-3.44,3.89-5.43a12,12,0,0,1,3.46-2.62c1.6-.73,1.77-.75,6.32-.64,6.91.17,7.54.57,7.87,5,.23,3,.73,4.33,1.84,4.72,1.44.5,3.1-.35,6.48-3.33a13,13,0,0,1,5.33-3.11c.88-.19,1-.14,1.4.89.68,1.64.37,3.31-1.17,6.25a9.9,9.9,0,0,0-1.17,2.83,7.53,7.53,0,0,0,1.74,1c2.85,1.35,3,2.83.54,7.52-1,1.95-1.59,3.4-1.48,3.69.24.63,1.47.61,6-.11s5-.7,5.62-.12c1.11,1.12-.15,3.95-2.89,6.45-3.23,2.95-6,3.82-13.85,4.36l-8.82.6c-7.13.48-10.39,1.09-13.89,2.58-2.49,1.05-4.18,2.13-4.78,3.06-.46.7-.46.77.06,1.29,1.13,1.13,2.09,1,4.6-.58,3.75-2.39,6.15-2.79,7.38-1.23.75,1,.71,1.64-.18,3.17-1.5,2.55-.46,3.25,4.83,3.25,3.85,0,4.68.17,5.75,1.17,2.32,2.17-.07,4.38-6.66,6.17a28,28,0,0,1-8,1.36,6.79,6.79,0,0,1-3.76-.79c-3.79-1.82-7.22-.8-13.09,3.88a53.26,53.26,0,0,1-5.7,4,44.91,44.91,0,0,0-8.85,6.4,21.61,21.61,0,0,1-7,4.48L239.46,296l-.22,1.94a24,24,0,0,1-2.27,7.91c-2.32,5-3.95,6.42-10.11,9-4.87,2-6.29,2.83-6.83,3.88-.38.72-.48,2.25-.57,8.25-.06,4.05-.18,7.8-.26,8.33a5,5,0,0,1-1.18,2.09c-1.83,2-3.55,1.32-4.14-1.72-1.18-6.19-2.06-8.21-4.46-10.33a26.43,26.43,0,0,0-4.45-2.79c-2.64-1.31-3.21-1.49-4.8-1.5a4.8,4.8,0,0,0-3.36,1c-3.16,2-4.26,2.44-6.3,2.45a39.76,39.76,0,0,1-6-.82l-4.1-.84-1.9.52c-6.8,1.84-12.53,9.45-13.73,18.25a53.19,53.19,0,0,0-.25,6.9c.1,4.14.14,4.4.92,5.72a10.55,10.55,0,0,0,4.6,4.48,12.48,12.48,0,0,0,8.31,1.47c3-.34,4-1.12,5.76-4.3,1-1.75,1.58-2.57,2.19-2.87a13,13,0,0,1,5.7-.23c1.35.29,2.82,1.51,2.81,2.33a10.89,10.89,0,0,1-1.19,2.79c-3.21,5.9-3.42,6.38-3.42,7.69,0,2.79,1.82,4,6.93,4.59,4.31.51,4.59.59,4.93,1.49.45,1.19.3,5.29-.3,7.9-.73,3.19-.72,3.89.12,5.68A9.32,9.32,0,0,0,206,389.7c1.8.9,5.23,1.12,7.88.5,1.86-.44,2.92-.31,3.35.39a7.94,7.94,0,0,0,3.61,2c1.69,0,3.85-1.52,8.27-5.84a44.4,44.4,0,0,1,5.15-4.56,7.89,7.89,0,0,1,2.19-.29c1.11,0,1.48.12,1.72.56.36.68,0,2.77-1.06,5.48a6.47,6.47,0,0,0-.54,2.51c.26,1.05,1.59,2.43,2.34,2.43,1.14,0,1.58-1,1.58-3.64,0-3.94.23-5,1.33-5.8a5.24,5.24,0,0,1,4.61-.67,28.74,28.74,0,0,1,4.56,2.28c1.77,1.05,3.61,2.08,4.08,2.29a21,21,0,0,0,4.48.53c5,.2,6,.56,8.75,3.18,4.43,4.14,7.27,5.95,15.82,10.08l5.2,2.51a19.41,19.41,0,0,1,8.44,8.45c2.48,4.83,2.5,7.71.08,11.15-1.34,1.9-1.53,2.52-.94,3.1s1.6.39,2.6-.48c2.95-2.58,4.68-3,6.27-1.51a2.74,2.74,0,0,1,.89,1.38,3.93,3.93,0,0,1-1.15,1.68c-1.72,1.68-1.5,2.46.71,2.46a4.82,4.82,0,0,0,2.47-1.05c2.11-1.45,3.34-1.9,5.19-1.92,2.6,0,4.34,1.33,4.34,3.37a2.65,2.65,0,0,0,1.19,2.35,6.44,6.44,0,0,0,2.53-.72c3.53-1.54,6.75-1.12,10.66,1.41a15.81,15.81,0,0,0,2.41,1.33c.9.29,4.14,3.4,5.25,5.05a10.47,10.47,0,0,0,1.48,1.8c.76.63,2.86.66,5.24.09,2.53-.62,4.83-.57,5.67.11.61.49.69.83.79,3.2.14,3.72-.25,4.59-3.34,7.51-2.14,2-2.59,2.63-3.4,4.57a41.59,41.59,0,0,1-4.71,8.68l-1.73,2.41-.19,3.23c-.34,5.53-1,12.92-1.5,16-.81,5.34-2,8-4.74,10.58-1.81,1.7-2.35,1.91-8.09,3.28a51.53,51.53,0,0,0-7.37,2.27l-2.6,1.14-.15,8.09c-.17,9.68-.14,9.57-3.47,11.81-2.46,1.65-3.57,2.72-8,7.72a38.73,38.73,0,0,1-4.62,4.57c-1.52,1-2.12,1-5.3.3-4.23-1-4.42.83-.7,6.51,1.26,1.92,1.32,2.11,1.22,3.76a6,6,0,0,1-2.18,4.65c-.83.56-1.63.77-6,1.54-2.21.4-3.05,1.15-3.07,2.74,0,2-.58,3.16-1.72,3.55a8.25,8.25,0,0,1-2.11.36c-1.31,0-2.22.45-2.22,1a10.74,10.74,0,0,0,.74,2.2,9.24,9.24,0,0,1,0,7.26,11.23,11.23,0,0,0-.74,2.85,25.83,25.83,0,0,0,1.93,5.12c2.35,5.12,2.46,6.1,1,8.47-2.29,3.64-2.14,3.12-2.31,8.25-.13,3.76-.25,4.78-.59,5-1.46.91-5.47.49-7.28-.76-1.34-.93-3.72-4-5.68-7.36a38.91,38.91,0,0,0-6.23-8,39.06,39.06,0,0,1-2.79-3.25c-.23-.43,0-1,.85-2.79,1.45-2.87,1.54-3.2,1.16-4.41a27.65,27.65,0,0,1-.51-4.48l-.19-3.48-2.37-4.9a58.28,58.28,0,0,1-2.81-6.68c-.64-2.55-1-6.36-1.32-15.56-.36-9.63-.7-13.9-1.46-18.31a39.08,39.08,0,0,1-.56-4.92,30.79,30.79,0,0,0-1.59-9.43c-1.13-3.3-1.46-5.24-1.88-11.12-.59-8.42-1.51-11.31-4.58-14.55a31.19,31.19,0,0,0-6.87-5.21c-2.93-1.71-7.44-7.09-13.76-16.38-2.55-3.75-7.59-11.64-8.4-13.13-2.9-5.39-3.08-6.21-2.25-10.1l.66-3.07-.64-2.93c-.73-3.35-.64-6.12.27-8.18a31.28,31.28,0,0,1,3-4.26c2.9-3.66,4.13-5.63,5.11-8.24.66-1.73.74-2.39.76-6,0-4.84-.3-6.17-1.88-7.75-1.29-1.29-1.73-1.31-4.74-.18-2.09.79-6.74,1.1-8.35.57s-5-2.89-7.24-4.95a31.28,31.28,0,0,1-4.36-5.48c-4.08-6.19-8-9.2-12.91-9.77-2.68-.32-3.13-.62-6.37-4.1l-2.41-2.6-3.89.45c-2.14.24-4.49.52-5.24.62-2.82.36-6.46-1.35-12.29-5.74-5.36-4-7.31-6.3-7.31-8.49a3,3,0,0,0-.45-1.5,8.1,8.1,0,0,1-.73-2.45c-.54-3.47-4.61-10.45-8.66-14.86a19.74,19.74,0,0,1-3.41-6.31c-.17-.64-.51-2.52-.76-4.19-.57-3.9-1.2-5.89-2.19-6.95a1.94,1.94,0,0,0-2.91-.3c-.94.77-.85,2.06.44,6.05,1.11,3.41,1.41,6.05.8,6.79a3,3,0,0,1-1.42.62,8.37,8.37,0,0,0-1.85.61,7,7,0,0,1-2.54.41,10.88,10.88,0,0,0-1.75.07s-.33,1.74-.72,3.77-1.12,6.91-1.6,10.83-1.13,8.78-1.44,10.78a90.46,90.46,0,0,0-.74,10,56.6,56.6,0,0,1-.59,8c-.56,2.29-.56,15.53,0,17.83a57,57,0,0,1,.56,8.13c.11,4.46.29,6.87.56,7.66a21.49,21.49,0,0,1,.6,4.13c.23,3.58,1.33,11.88,2.52,19,.94,5.6,3.55,17.75,4,18.58a13,13,0,0,1,.61,2.38c.71,3.95,7.65,25.5,9.12,28.35a29.69,29.69,0,0,1,1.19,3.07c.41,1.21,1.45,3.77,2.33,5.68,2,4.46,3,6.79,3,7.44a1.09,1.09,0,0,0,.58.82c.32.17.58.47.58.66a100.78,100.78,0,0,0,5.07,10.7c.79,1.4,1.61,2.9,1.83,3.32,1.2,2.33,6.49,11.37,8.41,14.36,1.22,1.91,2.47,3.89,2.77,4.41a2.72,2.72,0,0,0,1.05,1.1c.34.11.52.45.52,1a3.12,3.12,0,0,0,.72,1.68,3.72,3.72,0,0,1,.72,1.09,7.79,7.79,0,0,0,1.15,1.59,12.08,12.08,0,0,1,1.51,2.19,9.49,9.49,0,0,0,1.38,2c.56.64,2.24,2.76,3.72,4.7a26.31,26.31,0,0,0,3,3.52c.15,0,.46.45.69,1a23.36,23.36,0,0,0,2.62,3.62c1.2,1.44,2.73,3.32,3.39,4.19,3.63,4.74,12.62,14.11,14.35,15,.5.24.9.52.89.62s0,.33,0,.5c0,.47,7.1,7.63,11.12,11.23a310.46,310.46,0,0,0,38.09,28.43,280.25,280.25,0,0,0,41.38,20.91c13.61,5.32,17.11,6.51,27.31,9.32,27.87,7.67,50.24,10.5,79.18,10a241.46,241.46,0,0,0,30.92-2.1c9.69-1.38,26.81-4.72,32.51-6.36,22.62-6.47,34.13-10.82,52.3-19.78,13.77-6.79,20.55-10.88,37.71-22.77a120.52,120.52,0,0,0,12.6-9.57,283.2,283.2,0,0,0,48-50.64c2.58-3.52,10.08-14.66,11.68-17.35a8.16,8.16,0,0,1,1.4-2c.14,0,.5-.58.81-1.29s1.65-3.14,3-5.41c3.14-5.43,12-23,13.39-26.67.62-1.59,2-5,3.08-7.67,1.92-4.69,5.75-15.74,5.75-16.58a4,4,0,0,1,.56-1.38,10.51,10.51,0,0,0,.86-2.69,21,21,0,0,1,.89-3.24c1.14-3,4.51-16.88,6.08-25.08,1.3-6.77,3.47-23.27,4-30.49.56-7.46.92-18.09.8-23.41-.2-8.63-.76-18.69-1.22-22-.24-1.67-.75-5.87-1.15-9.34-.83-7.31-1.48-11.59-1.88-12.34-.26-.48-.86-.53-7.3-.62-6.93-.09-7-.1-8.69-.88a16.16,16.16,0,0,1-3.64-2.68l-2-1.89-3.15.47c-6.85,1-8.51.21-13.28-6.49-2.11-3-3.76-4.46-5.8-5.23-2.57-1-4.94-.61-6,.89s-.67,2.09,2.36,5.25a23,23,0,0,1,3.15,3.82c.17.48.61,1.68,1,2.67.78,2.19,2.09,3.47,5,4.85a12.65,12.65,0,0,0,7.59,1.3,11.09,11.09,0,0,0,5.45-3.56,2.28,2.28,0,0,1,2.37-1.24c.7.18,1.15,1.07,1.45,2.92.55,3.38,2.65,5,9,6.79,2.66.76,3.2,1.43,2.69,3.27-.47,1.68-1.85,3.35-4.48,5.42s-3.35,3.05-5.23,6.68c-2,3.8-3.59,5.35-7.07,6.71-4.21,1.66-9.6,4.63-16.46,9.08a39,39,0,0,1-4.91,2.7,11.71,11.71,0,0,1-5.39,1.05c-4.76.17-5.63-.46-6.6-4.8-2-8.94-3.4-11.42-9.5-16.65-2.15-1.84-2.23-2-3.29-5.81a21.71,21.71,0,0,0-4.28-8.3,13.57,13.57,0,0,1-1.58-2.2,12.79,12.79,0,0,0-1.2-2.09,43.89,43.89,0,0,1-4.58-9.66c-1.19-3.4-1.94-4.74-2.23-4a1.8,1.8,0,0,1-1.91,1.16c-.78-.08-1-.32-1.84-2s-1.05-1.95-1.82-1.95a1.46,1.46,0,0,0-1.33.72c-.42.65-.42.84,0,2a29.34,29.34,0,0,0,2.54,4.41c1.16,1.73,3.5,5.81,5.18,9.07s4.08,7.72,5.31,9.92c3,5.33,4.06,7.76,5.26,11.85,1.78,6.06,3.64,9.13,8.84,14.56,3.29,3.44,3.53,3.77,5.21,7.3l1.76,3.69,2,.32a24.64,24.64,0,0,0,8.49-.12c1.18-.24,4.78-1.34,8-2.45,6.42-2.2,8-2.45,9.28-1.43,1.63,1.28,1.69,3.66.17,6.85-1.18,2.47-7.71,12.18-10.82,16.11-1.48,1.86-6.28,6.91-11.55,12.14-8,8-9.25,9.31-11.1,12.14a21.87,21.87,0,0,0-2.34,4.38c-.63,2.8-.89,10.12-.81,22.49.08,11.54,0,13.12-.38,14.05-.52,1.14-2.54,3.62-6.26,7.67-4.44,4.83-7.46,9.49-8,12.3a37.11,37.11,0,0,0,.14,5.48l.33,4.4-4.22,4.12a33.3,33.3,0,0,0-4.35,4.78c-.07.37-.2,1.42-.28,2.36-.2,2.32-.86,3.23-6.37,8.71-7.39,7.35-13.64,12.51-18.63,15.36l-2.62,1.5-2.82-1a21.76,21.76,0,0,0-3.43-1,6.08,6.08,0,0,0-2,.77c-2.72,1.47-3.45,1.77-4.79,2a4.5,4.5,0,0,1-3.85-1c-.65-.72-.91-2-1.3-6.37-.61-6.73-1.44-8.94-4.42-11.72-2.32-2.16-2.86-3.21-3.78-7.27a81.32,81.32,0,0,0-2.62-8.25c-2.47-6.54-2.88-8.25-3.77-15.46-.41-3.29-1-7.87-1.35-10.18-.92-6.37-.6-9.6,1.5-15.17.55-1.46.65-2.32.66-5.49v-3.76l-1.46-3.9c-.8-2.14-1.62-4.61-1.82-5.49a15.65,15.65,0,0,0-3.31-6.4c-1.77-2.32-2.45-3.88-3.53-8.05-.89-3.4-1.23-9.61-.68-12.28.71-3.43.71-3.53-.3-5.52a9.27,9.27,0,0,0-4.24-4.35,20.39,20.39,0,0,0-4.14-.68c-3-.24-4.58-.71-5.1-1.51a7.34,7.34,0,0,1-.52-1.34c-.41-1.39-1.46-2.05-3.83-2.41-2.7-.42-4.94,0-8.71,1.48a39.37,39.37,0,0,1-4.25,1.48c-.73.16-4.79.49-9,.73s-9.06.64-10.71.88c-3.44.51-4.65.38-7.11-.75-4.13-1.89-8.67-5.87-12.18-10.7-1-1.35-3.11-3.88-4.73-5.63-6.68-7.22-8.25-10.38-8-16.17.11-2.9-.19-2.12,3.81-9.8A12.88,12.88,0,0,0,410.1,360a16.71,16.71,0,0,0-1.2-3.93,14.4,14.4,0,0,1-1.33-5.13c-.17-2.57.07-3.22,2.73-7.64,1-1.58,2.4-4.19,3.21-5.8,2.78-5.55,6.21-9.27,10.89-11.83,2.34-1.28,3.27-1.94,3.84-2.77a17.58,17.58,0,0,0,.79-4.77c.25-2.72.54-4.42.83-4.86.77-1.18,5.41-4.45,8.48-6l3-1.47,6.58-.36c7.19-.39,7.29-.42,12.25-2.91s7.95-2.95,13.84-2.28c4.74.54,6.79.44,8.67-.42a9.07,9.07,0,0,1,6.11-.16c1.4.73,2,2.55,2.3,6.71a40.19,40.19,0,0,0,.4,4.12c.21.63,1.3,1,4.48,1.43,4.61.66,6.93,1.73,11,5.12,3.52,2.91,4.35,3.38,5.65,3.17,2-.32,4.13-2.29,4.14-3.77a10.66,10.66,0,0,1,2.53-4.44c1.77-1.17,6.65-.11,13.41,2.92,2.28,1,4.66,2,5.3,2.17a11.76,11.76,0,0,0,5.78-.14,51.57,51.57,0,0,1,7.39-.65l5.66-.22,2.26-1.07,2.25-1.07-.15-6.31a43.09,43.09,0,0,0-.46-6.89,2.8,2.8,0,0,0-1.22-1c-.79-.33-1.26-.29-3.6.28a8.54,8.54,0,0,1-5.25.19c-3.3-.6-3.77-.59-5.15.16a8,8,0,0,1-3.32.76c-3.88.23-4.76-.53-7.89-6.77l-1.75-3.51.92-1.43c1.6-2.5,1.65-2.47-3.92-2.32a41.42,41.42,0,0,0-5.35.35c-.91.4-.54,1.31,1.35,3.32,2.18,2.32,2.58,3.42,2.43,6.72-.1,2.16-.14,2.27-1.24,3.4-1.31,1.34-2.33,1.5-4.7.71-1.91-.64-3-1.7-3-3,0-.81.26-1.26,1.37-2.36a10.4,10.4,0,0,1,1.81-1.53c.36-.14.34-.24-.13-.62a4.4,4.4,0,0,0-2.45-.47c-3.95,0-5.1-1.22-5.55-5.72-.35-3.49-.45-3.84-1.47-5.09-1.29-1.56-4.47-3.55-10.43-6.53-4.88-2.45-6.85-3.09-6.84-2.22s1.89,3.6,3.32,5c1.81,1.77,4.34,3.45,8.92,5.92,2.73,1.47,3.52,2,3.81,2.73.39.93.13,1.59-.63,1.59-.48,0-.51.92-.11,3.31.49,3-.17,4.82-1.93,5.26-2,.5-3.11-.92-3.74-4.87-.51-3.14-1-4.35-2.19-5.18-.69-.49-1-.55-1.48-.3-1.84.9-5.06.7-6.14-.38a7.91,7.91,0,0,1-1.24-2.55,13.78,13.78,0,0,0-2.79-5.4c-2.07-2.48-4.49-3.78-6-3.21a13.23,13.23,0,0,0-2.39,1.71,9.07,9.07,0,0,1-2.4,1.59,13.48,13.48,0,0,1-3.18-.41c-2.78-.61-4.73-.7-5.57-.25s-1.3,1.54-1.88,3.84c-.63,2.51-1.75,3.79-4.77,5.41-4.5,2.42-6.8,5.43-7.51,9.82a3.45,3.45,0,0,1-1.17,2.41c-1,.9-.53.87-5.53.3a5.72,5.72,0,0,0-3.36.57c-3.56,1.45-4,1.37-9.09-1.68-5.43-3.24-5.85-4.29-4-10l1.18-3.61-.18-4.19c-.18-3.95-.15-4.24.4-4.92s.8-.72,2.57-.7a5.67,5.67,0,0,1,4.31,1.49c.44.44,1.07.51,4.49.51h4l1-1a4.77,4.77,0,0,0,1.87-3.84c0-1.76-1-3.08-4.53-6.25a20,20,0,0,1-3.12-3.18c-.27-.85.27-1.64,1.66-2.45A95.21,95.21,0,0,1,458.7,257c1.16-.32,1.19-.36.52-.56a25.86,25.86,0,0,0-3.93-.25c-5.47-.05-7.49-.7-8-2.6-.6-2.07,1.77-6.3,3.81-6.81a3.72,3.72,0,0,0,1.14-.5c.44-.36.47-2.29.07-3.75-.27-1-.53-1.17-2.71-2.23s-2.42-1.21-2.74-2.46c-.51-2-.4-3.39.37-4.53a13.92,13.92,0,0,0,1.13-2c.56-1.34,2.27-2.67,3.1-2.4,1.45.46,5.19,4.76,5.19,6a2.59,2.59,0,0,1-.87,1.38,3,3,0,0,0-.86,1.14c0,.46,1.27.89,2.63.89s1.5.24,2.73,4.69l.76,2.74,2.5.17c4,.26,5.3,1,4.69,2.61-.23.6-1.53,2.28-4,5.18-.31.36-.35.6-.13.82.46.46,1.65-.26,4.14-2.5a32.92,32.92,0,0,1,9.09-5.9c6.13-2.94,7.06-3.23,10.19-3.22s6,.46,6.84,1.06,1.61.51,4.62-1c3.21-1.64,3.65-1.69,9.28-1.11,3.66.39,4.46.22,5.94-1.27.83-.83.84-.89.84-4.1,0-2.74.08-3.32.51-3.69.93-.8,1.53-.81,3.26-.09a9.07,9.07,0,0,0,2.44.72c.6,0,.73-.13.73-.8a5.11,5.11,0,0,0-.61-1.93l-.61-1.14,1.29-1.22,1.29-1.21,3.29,0c3.4,0,8.95-.9,10-1.65a1.85,1.85,0,0,0,.12-2.32c-.51-.62-2.82-.56-6.26.15-5.89,1.22-8.95,1-12.35-.81-1.9-1-2.78-2.33-2.78-4.13,0-1.39.59-2.73,3.59-8.16.9-1.63,1-2,.72-2.4-.47-.57-1.52-.31-2.86.69-1.94,1.45-7.87,7.44-8.59,8.67-1,1.69-.8,2.55,1.37,6.34a22.08,22.08,0,0,1,1.93,4c.18,1.14-.68,2-3,2.85-1.61.61-1.82.81-3.45,3.22-1.85,2.75-3.7,4.32-5.5,4.65-2.3.43-3.61-.66-5-4.2-1.15-2.86-2.35-4.55-3.57-5.06-.79-.33-1.28-.33-3.23,0a16.86,16.86,0,0,1-3.75.32,11.87,11.87,0,0,1-5.86-2.69c-1.54-1.32-2.2-3.33-2-6.22.21-3.68,2.15-5.39,8-7.06,6.36-1.82,8.62-3.51,10.92-8.16,1.64-3.34,1.68-3.37,9.11-7.25,7-3.68,7.95-3.94,13.95-3.9,11.34.08,16.45.78,34.13,4.73q4.73,1,5.59,2.65c.4.71.39.85-.16,1.59-1.08,1.48-2.51,2-5.75,1.93a16.08,16.08,0,0,1-5.33-.8c-3.14-1-4.19-1-4.81,0-.46.69-.45.78.29,1.89a15.3,15.3,0,0,0,4.64,4.35c1.83,1,2.24,1.06,2,.1a1.33,1.33,0,0,1,.33-1.3c.89-1,2.25-1.16,5.45-.71,5.37.77,7.15.48,8.73-1.4.8-.94.82-1.44.24-5.46a2.63,2.63,0,0,1,.13-1.77c1-1.15,4-.59,5.82,1.09a3,3,0,0,0,2.67,1,15,15,0,0,0,6-1.49l1.59-.71-5.92-5.93c-5.69-5.7-14-13.47-16.74-15.57-.71-.55-2.08-1.65-3-2.45-3.45-2.88-19.21-14.59-19.63-14.59a.76.76,0,0,1-.61-.3c-1.11-1.78-29.81-18.17-31.88-18.19a3.81,3.81,0,0,1-1.32-.72c-2.3-1.76-16.19-7.77-26.33-11.39-6.06-2.17-13.81-4.65-18.49-5.91-2.07-.56-5.12-1.4-6.79-1.88-3.79-1.08-14.1-3.32-19.65-4.26A276.79,276.79,0,0,0,396.41,115a87,87,0,0,1-9.2-.74c-.76-.41-7.82-.59-9.48-.25M301.37,158a4,4,0,0,0-1.37,3c0,1.39.94,2.44,3,3.37s2.61,1.48,2.37,2.41c-.19.77-.9,1.16-3.89,2.09-2.23.7-3.23,1.36-3.23,2.13a4.56,4.56,0,0,0,.77,1.6,2,2,0,0,1,.39,2.45c-.74,2.57-.71,3.38.14,4.24l.78.78,3.51-.17c6.11-.29,10.42-1.67,19.27-6.19a64.82,64.82,0,0,1,14.93-5.71q9.9-2.6,9.25-4.32c-.59-1.53-3.58-2.15-12.05-2.49-14.64-.59-18.55-1-23.12-2.59-1.49-.51-2.73-.67-6.06-.77-2.76-.08-4.37,0-4.7.19m113.21,2.89c-.8.12-2.15.36-3,.54s-4.69.46-8.52.63c-10.62.45-13,.86-16.92,2.89-3.7,1.92-6.07,2.15-11.81,1.14-6.44-1.12-14.51-1.41-15.54-.55a24.12,24.12,0,0,1-3.92,1,46.23,46.23,0,0,0-7,2.13c-3.3,1.32-7.79,2.85-13.15,4.49a31.75,31.75,0,0,1-4.81,1c-2.91.31-5.17,1.24-5.75,2.34-.64,1.25-.54,2.94.23,3.65,1.58,1.46,6.68,1.67,12.37.51,2-.4,4.42-.8,5.46-.9l1.9-.18,1.49,1.34a15,15,0,0,1,4.15,6.26,9.91,9.91,0,0,1,.49,4.61c-.21,4.17-1.67,7.38-5.24,11.48-2.11,2.43-2.55,3.44-2.59,6,0,1.77.06,2.18.76,3.21a10.12,10.12,0,0,1,1.24,3.32c1.11,5.43,3.28,7.28,9.39,8,4.66.58,4.29.65,5.92-1.21a25.84,25.84,0,0,0,2.39-3.25l1.86-3.21a17.37,17.37,0,0,1,2-2.74c2-2.1,6.56-3.85,12.64-4.89,3.84-.66,6.51-1.8,10.6-4.55,3.48-2.34,4.45-2.79,7.47-3.48a80.94,80.94,0,0,1,11.41-1.65c8.33-.82,11.85-2.24,11.85-4.77,0-1.24-2.84-3.68-5.52-4.74-2.3-.9-3.44-1.54-3.44-1.92s.93-1.14,1.61-1.14a14.38,14.38,0,0,1,2.87.75c2,.69,2.3.72,3.69.4,3.79-.9,5.64-2.62,8.57-8,2.16-4,3.38-5.27,6.53-7,5.1-2.83,6.23-3.55,6.66-4.2s.41-.77,0-1.6c-.63-1.22-1.78-1.64-5.05-1.87a27.94,27.94,0,0,1-10-2.05,40.71,40.71,0,0,0-4.48-1.52,24,24,0,0,0-6.78-.34m-125.74,5c-2.91.33-5.6,1.85-5.6,3.16,0,.62,1.31,1.44,3.68,2.29a8.37,8.37,0,0,0,4.05.52c2.61-.15,5.22-1.19,6-2.38.46-.69.46-.8,0-1.46-.57-.89-1.61-1.43-3.49-1.83a10.72,10.72,0,0,0-4.66-.3m-9.36,11.13a4.37,4.37,0,0,0-1.56,1.55c-.49.92-.51,1.12-.14,1.86a4.54,4.54,0,0,0,1.16,1.39c1,.71,8.92,3.1,10.32,3.09a26.14,26.14,0,0,0,7.35-1.65c1.25-.73,1.25-1.72,0-2.56a19,19,0,0,0-4-1.39,33.46,33.46,0,0,1-5-1.67c-2.49-1.16-6.5-1.46-8.14-.62m-71.41,6.47c-2.88.68-8.33,3.24-9.77,4.59-.89.83-1,1-.81,2.25.32,2.83,2.27,3.31,7.27,1.81,4.78-1.45,8.29-1.1,10.26,1,.73.78.59,1.32-.34,1.32-1.31,0-4,1-4.31,1.53a4.23,4.23,0,0,0-.16,1.9c.21,1.85.91,2.35,3.29,2.35a14.67,14.67,0,0,0,6.94-1.74l2.37-1.1,3.12.44c4.13.59,11.12.66,12.66.13,2.36-.81,3-2.21,1.88-3.94-.66-1-.72-1.78-.24-3.38.31-1,.28-1.19-.29-1.76s-.92-.61-2.29-.57a13.09,13.09,0,0,1-4.48-.86c-2.48-.81-2.92-.88-3.77-.57-1.28.46-2.79.44-3.36,0a8.5,8.5,0,0,0-2-.91,24.39,24.39,0,0,1-3-1.21,16.35,16.35,0,0,0-3.32-1.11,37,37,0,0,0-9.61-.11m47.43,1.72a12.09,12.09,0,0,1-3.67.56c-1.75,0-2.2.12-2.86.69s-.75.82-.59,1.47c.4,1.58,2.42,2.76,4.75,2.76a12.6,12.6,0,0,0,5.88-1.67c1.86-1.56,1.93-3.47.16-4.09-1.2-.42-1.84-.37-3.67.28m20.35,2.73a5.11,5.11,0,0,0-2.57,3,2.69,2.69,0,0,0,1.14,2.82c1.07.7,4,.42,6-.56a8.71,8.71,0,0,1,1.91-.76,5.75,5.75,0,0,1,1.7,1.11c2.55,2.12,3.54,2.25,6.88.91s4.1-1.2,5.43,1.41c.88,1.71,2.1,2.84,4.7,4.34,2.3,1.32,3,2.07,3,3.28,0,1.94-1.82,2.49-6.48,2l-3.2-.37L291.47,206c-4.43,1.63-4.46,1.65-5.06,2.42a3.08,3.08,0,0,0-.57,1.69c0,.8.19,1.09,1.11,1.7a6.64,6.64,0,0,0,2.61.91,8.11,8.11,0,0,1,5.81,3.91c2.42,3.6,3.86,4.69,6,4.51l1.12-.09.09-1.7a8.75,8.75,0,0,0-.17-2.45,2.32,2.32,0,0,1-.14-1.12c.17-.5,1.44-.45,3.07.1,3.46,1.18,5.51-1.06,4.41-4.79-1-3.22-.43-4.2,1.8-3.37,3.54,1.33,7.2.82,8.58-1.21s.59-4.17-2-5.55a13.16,13.16,0,0,1-2.09-1.43c-.7-.66-.73-.8-.55-2.77s.12-2.14-.41-2.67a4.71,4.71,0,0,0-1.85-.92,28,28,0,0,1-6.87-2.73c-3.8-2.14-5.18-2.45-7.8-1.78-2.37.61-3.26.58-4.71-.16s-2.11-.76-10.91-.94c-4.62-.09-6.44,0-7.09.25M427.72,206.1c-.39.08-1.56.43-2.6.77a14.59,14.59,0,0,1-5.49.64c-3.89,0-4.74.24-6.43,1.82a2.23,2.23,0,0,0-.79,2c0,1.7.39,2.34,1.85,3,3,1.33,6.93.9,12.07-1.32a17.25,17.25,0,0,1,3.81-1.29,4.47,4.47,0,0,0,3.22-1.64,2.63,2.63,0,0,0-.44-3.33c-.74-.55-3.73-.92-5.2-.64m-166.88,4c-1.8.79-2.07,2.11-.63,3.18.88.65,2,.72,5.4.33,1.74-.2,1.95-.16,2.89.54a17.45,17.45,0,0,0,2.24,1.34c1.53.74,2.22.44,2.7-1.14.69-2.3-.43-3.41-4.25-4.22-2.48-.53-7.17-.54-8.35,0m181,29.91c-.7.37-1,.71-.93,1.1.1.66-1.2,1.41-2.89,1.67a1.78,1.78,0,0,0-1.5,1,7.69,7.69,0,0,1-1.33,1.65,6.51,6.51,0,0,0-1.34,1.82,1.81,1.81,0,0,0,.11,2c.77,1.57,1.5,1.83,4.74,1.7a9.92,9.92,0,0,0,5.12-1.21c2.77-1.3,3.38-1.89,3.78-3.62.53-2.32.4-3.3-.63-4.58-1.62-2-3.29-2.51-5.13-1.52M308.49,257.33c-3.9,2.28-5.57,5.89-3.63,7.83a5.66,5.66,0,0,0,2.1,1.17c3,.81,10.58-.47,12.17-2.05,1.28-1.28.67-2.35-1.9-3.3a3.14,3.14,0,0,1-1.88-1.4A12.33,12.33,0,0,0,314,257.7a2.75,2.75,0,0,0-2.46-1.12,4.08,4.08,0,0,0-3,.75m256.17,7.24a13.89,13.89,0,0,0-2.47,1.4,20.47,20.47,0,0,1-2.71,1.58,6.89,6.89,0,0,0-1.84,1.32c-.83.89-.83.91-.37,2,.72,1.72.82,2.26.51,3.06-.37,1-1.79,1.69-3.39,1.72-2.29,0-3.68-1.63-4-4.81-.3-2.87-1.93-3.79-4.44-2.5-1.46.74-3.07,2.61-4.53,5.25-2.12,3.82-2.3,5.18-1.13,8.49,1,2.92,1,4.05-.32,5.37-1.49,1.53-.73,1.65.94.15,3.15-2.82,4.76-3.39,6.08-2.15l.67.62,2.53-1.2c3.46-1.64,5.16-1.95,8.46-1.52s4.91,1,7,2.44a4.44,4.44,0,0,0,3.77,1.17c2.45,0,4.65-.8,5.46-1.88.52-.7.53-.82.11-1.81-.89-2.13-4.54-5.22-9.57-8.1-3.54-2-4.86-3.25-4.86-4.51s.91-2.09,3-2.34c1.45-.17,1.94-.37,2.47-1,.81-.95.86-2.34.09-2.75a2.59,2.59,0,0,0-.65-.27l-.85.25M208.39,344.38c-2.57.69-4.21,1.55-5,2.62-.51.7-.54.92-.23,1.94.67,2.23,1.83,2.46,6.69,1.32,5.16-1.21,6.36-1,7.63,1.54a7,7,0,0,0,3.06,3.29,28.08,28.08,0,0,0,8.59,1.23c4,0,4.53-.21,4.53-2,0-1.26-.35-1.59-3.66-3.37-1.31-.71-3.8-2.22-5.55-3.36-3.78-2.46-5.41-3.11-8.75-3.49-3.52-.41-4.8-.35-7.3.32m32.66,12.26a27.2,27.2,0,0,0-3.33.81,14.64,14.64,0,0,1-2.41.6c-2.35.33-3.95,1.66-3.75,3.1s1.15,1.54,9.78,1.54c7,0,8-.06,8.86-.5a3.76,3.76,0,0,0,2.12-2.84c0-.87-1.3-2.19-2.41-2.44a17.55,17.55,0,0,0-5-.68,29.28,29.28,0,0,0-3.9.41M608.3,464.51c-1.26.8-2.16,1.75-5.52,5.82a10.32,10.32,0,0,1-4,3.13c-1.34.69-2.91,1.55-3.48,1.92a10.33,10.33,0,0,0-3.43,5.25c-.55,1.77-.55,1.83,0,4.15.89,3.73.73,4.58-1.54,8.12-2.14,3.33-2.44,6.17-1,9.29a7.49,7.49,0,0,0,4.19,4.05,6,6,0,0,0,3.82.74c3.36-.19,4.5-1.59,5.34-6.53,1-6.2,4.52-14.49,8.69-20.75,3.14-4.72,3.44-5.48,3.44-8.79s-.45-5-1.72-6.27-2.92-1.32-4.8-.13" transform="translate(-87.43 -91.11)"/></svg>